<mxfile host="Electron" modified="2023-12-17T21:28:00.373Z" agent="Mozilla/5.0 (Windows NT 10.0; Win64; x64) AppleWebKit/537.36 (KHTML, like Gecko) draw.io/22.0.3 Chrome/114.0.5735.289 Electron/25.8.4 Safari/537.36" etag="Jb_YXdK2KTuT32wLJA-S" version="22.0.3" type="device">
  <diagram name="PÃ¡gina-1" id="L0xUNaANByBCt-JBeJLp">
    <mxGraphModel dx="2261" dy="2013" grid="1" gridSize="10" guides="1" tooltips="1" connect="1" arrows="1" fold="1" page="1" pageScale="1" pageWidth="827" pageHeight="1169" math="0" shadow="0">
      <root>
        <mxCell id="0" />
        <mxCell id="1" parent="0" />
        <mxCell id="NsEGqORS4dfYETc8ckf7-20" style="edgeStyle=none;shape=connector;rounded=0;orthogonalLoop=1;jettySize=auto;html=1;labelBackgroundColor=default;strokeColor=#DDA15E;align=center;verticalAlign=middle;fontFamily=Helvetica;fontSize=11;fontColor=#FEFAE0;endArrow=none;endFill=0;fillColor=#BC6C25;" edge="1" parent="1" source="NsEGqORS4dfYETc8ckf7-1" target="NsEGqORS4dfYETc8ckf7-8">
          <mxGeometry relative="1" as="geometry" />
        </mxCell>
        <mxCell id="NsEGqORS4dfYETc8ckf7-21" style="edgeStyle=none;shape=connector;rounded=0;orthogonalLoop=1;jettySize=auto;html=1;labelBackgroundColor=default;strokeColor=#DDA15E;align=center;verticalAlign=middle;fontFamily=Helvetica;fontSize=11;fontColor=#FEFAE0;endArrow=none;endFill=0;fillColor=#BC6C25;" edge="1" parent="1" source="NsEGqORS4dfYETc8ckf7-1" target="NsEGqORS4dfYETc8ckf7-7">
          <mxGeometry relative="1" as="geometry" />
        </mxCell>
        <mxCell id="NsEGqORS4dfYETc8ckf7-27" style="edgeStyle=none;shape=connector;rounded=0;orthogonalLoop=1;jettySize=auto;html=1;labelBackgroundColor=default;strokeColor=#DDA15E;align=center;verticalAlign=middle;fontFamily=Helvetica;fontSize=11;fontColor=#FEFAE0;endArrow=none;endFill=0;fillColor=#BC6C25;" edge="1" parent="1" source="NsEGqORS4dfYETc8ckf7-1" target="NsEGqORS4dfYETc8ckf7-22">
          <mxGeometry relative="1" as="geometry" />
        </mxCell>
        <mxCell id="NsEGqORS4dfYETc8ckf7-79" value="(1,1)" style="edgeLabel;html=1;align=center;verticalAlign=middle;resizable=0;points=[];fontSize=11;fontFamily=Helvetica;fontColor=#FEFAE0;" vertex="1" connectable="0" parent="NsEGqORS4dfYETc8ckf7-27">
          <mxGeometry y="-5" relative="1" as="geometry">
            <mxPoint as="offset" />
          </mxGeometry>
        </mxCell>
        <mxCell id="NsEGqORS4dfYETc8ckf7-1" value="CLIENTE" style="whiteSpace=wrap;html=1;align=center;labelBackgroundColor=none;fillColor=#BC6C25;strokeColor=#DDA15E;fontColor=#FEFAE0;" vertex="1" parent="1">
          <mxGeometry x="40" y="480" width="100" height="40" as="geometry" />
        </mxCell>
        <mxCell id="NsEGqORS4dfYETc8ckf7-65" style="edgeStyle=none;shape=connector;rounded=0;orthogonalLoop=1;jettySize=auto;html=1;labelBackgroundColor=default;strokeColor=#DDA15E;align=center;verticalAlign=middle;fontFamily=Helvetica;fontSize=11;fontColor=#FEFAE0;endArrow=none;endFill=0;fillColor=#BC6C25;" edge="1" parent="1" source="NsEGqORS4dfYETc8ckf7-2" target="NsEGqORS4dfYETc8ckf7-64">
          <mxGeometry relative="1" as="geometry" />
        </mxCell>
        <mxCell id="NsEGqORS4dfYETc8ckf7-66" style="edgeStyle=none;shape=connector;rounded=0;orthogonalLoop=1;jettySize=auto;html=1;labelBackgroundColor=default;strokeColor=#DDA15E;align=center;verticalAlign=middle;fontFamily=Helvetica;fontSize=11;fontColor=#FEFAE0;endArrow=none;endFill=0;fillColor=#BC6C25;" edge="1" parent="1" source="NsEGqORS4dfYETc8ckf7-2" target="NsEGqORS4dfYETc8ckf7-63">
          <mxGeometry relative="1" as="geometry" />
        </mxCell>
        <mxCell id="NsEGqORS4dfYETc8ckf7-67" style="edgeStyle=none;shape=connector;rounded=0;orthogonalLoop=1;jettySize=auto;html=1;labelBackgroundColor=default;strokeColor=#DDA15E;align=center;verticalAlign=middle;fontFamily=Helvetica;fontSize=11;fontColor=#FEFAE0;endArrow=none;endFill=0;fillColor=#BC6C25;" edge="1" parent="1" source="NsEGqORS4dfYETc8ckf7-2" target="NsEGqORS4dfYETc8ckf7-62">
          <mxGeometry relative="1" as="geometry" />
        </mxCell>
        <mxCell id="NsEGqORS4dfYETc8ckf7-2" value="TIPO_COLABORADOR" style="whiteSpace=wrap;html=1;align=center;labelBackgroundColor=none;fillColor=#BC6C25;strokeColor=#DDA15E;fontColor=#FEFAE0;" vertex="1" parent="1">
          <mxGeometry x="414" y="760" width="140" height="40" as="geometry" />
        </mxCell>
        <mxCell id="NsEGqORS4dfYETc8ckf7-54" style="edgeStyle=none;shape=connector;rounded=0;orthogonalLoop=1;jettySize=auto;html=1;labelBackgroundColor=default;strokeColor=#DDA15E;align=center;verticalAlign=middle;fontFamily=Helvetica;fontSize=11;fontColor=#FEFAE0;endArrow=none;endFill=0;fillColor=#BC6C25;" edge="1" parent="1" source="NsEGqORS4dfYETc8ckf7-3" target="NsEGqORS4dfYETc8ckf7-53">
          <mxGeometry relative="1" as="geometry" />
        </mxCell>
        <mxCell id="NsEGqORS4dfYETc8ckf7-55" style="edgeStyle=none;shape=connector;rounded=0;orthogonalLoop=1;jettySize=auto;html=1;labelBackgroundColor=default;strokeColor=#DDA15E;align=center;verticalAlign=middle;fontFamily=Helvetica;fontSize=11;fontColor=#FEFAE0;endArrow=none;endFill=0;fillColor=#BC6C25;" edge="1" parent="1" source="NsEGqORS4dfYETc8ckf7-3" target="NsEGqORS4dfYETc8ckf7-52">
          <mxGeometry relative="1" as="geometry" />
        </mxCell>
        <mxCell id="NsEGqORS4dfYETc8ckf7-3" value="TIPO_PAGO" style="whiteSpace=wrap;html=1;align=center;labelBackgroundColor=none;fillColor=#BC6C25;strokeColor=#DDA15E;fontColor=#FEFAE0;" vertex="1" parent="1">
          <mxGeometry x="734" y="360" width="100" height="40" as="geometry" />
        </mxCell>
        <mxCell id="NsEGqORS4dfYETc8ckf7-35" style="edgeStyle=none;shape=connector;rounded=0;orthogonalLoop=1;jettySize=auto;html=1;labelBackgroundColor=default;strokeColor=#DDA15E;align=center;verticalAlign=middle;fontFamily=Helvetica;fontSize=11;fontColor=#FEFAE0;endArrow=none;endFill=0;fillColor=#BC6C25;" edge="1" parent="1" source="NsEGqORS4dfYETc8ckf7-4" target="NsEGqORS4dfYETc8ckf7-26">
          <mxGeometry relative="1" as="geometry" />
        </mxCell>
        <mxCell id="NsEGqORS4dfYETc8ckf7-87" value="(0,N)" style="edgeLabel;html=1;align=center;verticalAlign=middle;resizable=0;points=[];fontSize=11;fontFamily=Helvetica;fontColor=#FEFAE0;" vertex="1" connectable="0" parent="NsEGqORS4dfYETc8ckf7-35">
          <mxGeometry x="-0.125" y="-2" relative="1" as="geometry">
            <mxPoint as="offset" />
          </mxGeometry>
        </mxCell>
        <mxCell id="NsEGqORS4dfYETc8ckf7-68" style="edgeStyle=none;shape=connector;rounded=0;orthogonalLoop=1;jettySize=auto;html=1;labelBackgroundColor=default;strokeColor=#DDA15E;align=center;verticalAlign=middle;fontFamily=Helvetica;fontSize=11;fontColor=#FEFAE0;endArrow=none;endFill=0;fillColor=#BC6C25;" edge="1" parent="1" source="NsEGqORS4dfYETc8ckf7-4" target="NsEGqORS4dfYETc8ckf7-58">
          <mxGeometry relative="1" as="geometry" />
        </mxCell>
        <mxCell id="NsEGqORS4dfYETc8ckf7-69" style="edgeStyle=none;shape=connector;rounded=0;orthogonalLoop=1;jettySize=auto;html=1;labelBackgroundColor=default;strokeColor=#DDA15E;align=center;verticalAlign=middle;fontFamily=Helvetica;fontSize=11;fontColor=#FEFAE0;endArrow=none;endFill=0;fillColor=#BC6C25;" edge="1" parent="1" source="NsEGqORS4dfYETc8ckf7-4" target="NsEGqORS4dfYETc8ckf7-56">
          <mxGeometry relative="1" as="geometry" />
        </mxCell>
        <mxCell id="NsEGqORS4dfYETc8ckf7-70" style="edgeStyle=none;shape=connector;rounded=0;orthogonalLoop=1;jettySize=auto;html=1;labelBackgroundColor=default;strokeColor=#DDA15E;align=center;verticalAlign=middle;fontFamily=Helvetica;fontSize=11;fontColor=#FEFAE0;endArrow=none;endFill=0;fillColor=#BC6C25;" edge="1" parent="1" source="NsEGqORS4dfYETc8ckf7-4" target="NsEGqORS4dfYETc8ckf7-57">
          <mxGeometry relative="1" as="geometry" />
        </mxCell>
        <mxCell id="NsEGqORS4dfYETc8ckf7-71" style="edgeStyle=none;shape=connector;rounded=0;orthogonalLoop=1;jettySize=auto;html=1;labelBackgroundColor=default;strokeColor=#DDA15E;align=center;verticalAlign=middle;fontFamily=Helvetica;fontSize=11;fontColor=#FEFAE0;endArrow=none;endFill=0;fillColor=#BC6C25;" edge="1" parent="1" source="NsEGqORS4dfYETc8ckf7-4" target="NsEGqORS4dfYETc8ckf7-61">
          <mxGeometry relative="1" as="geometry" />
        </mxCell>
        <mxCell id="NsEGqORS4dfYETc8ckf7-72" style="edgeStyle=none;shape=connector;rounded=0;orthogonalLoop=1;jettySize=auto;html=1;labelBackgroundColor=default;strokeColor=#DDA15E;align=center;verticalAlign=middle;fontFamily=Helvetica;fontSize=11;fontColor=#FEFAE0;endArrow=none;endFill=0;fillColor=#BC6C25;" edge="1" parent="1" source="NsEGqORS4dfYETc8ckf7-4" target="NsEGqORS4dfYETc8ckf7-59">
          <mxGeometry relative="1" as="geometry" />
        </mxCell>
        <mxCell id="NsEGqORS4dfYETc8ckf7-73" style="edgeStyle=none;shape=connector;rounded=0;orthogonalLoop=1;jettySize=auto;html=1;labelBackgroundColor=default;strokeColor=#DDA15E;align=center;verticalAlign=middle;fontFamily=Helvetica;fontSize=11;fontColor=#FEFAE0;endArrow=none;endFill=0;fillColor=#BC6C25;" edge="1" parent="1" source="NsEGqORS4dfYETc8ckf7-4" target="NsEGqORS4dfYETc8ckf7-60">
          <mxGeometry relative="1" as="geometry" />
        </mxCell>
        <mxCell id="NsEGqORS4dfYETc8ckf7-4" value="COLABORADOR" style="shape=ext;margin=3;double=1;whiteSpace=wrap;html=1;align=center;labelBackgroundColor=none;fillColor=#BC6C25;strokeColor=#DDA15E;fontColor=#FEFAE0;" vertex="1" parent="1">
          <mxGeometry x="434" y="480" width="100" height="40" as="geometry" />
        </mxCell>
        <mxCell id="NsEGqORS4dfYETc8ckf7-31" style="edgeStyle=none;shape=connector;rounded=0;orthogonalLoop=1;jettySize=auto;html=1;labelBackgroundColor=default;strokeColor=#DDA15E;align=center;verticalAlign=middle;fontFamily=Helvetica;fontSize=11;fontColor=#FEFAE0;endArrow=none;endFill=0;fillColor=#BC6C25;" edge="1" parent="1" source="NsEGqORS4dfYETc8ckf7-5" target="NsEGqORS4dfYETc8ckf7-25">
          <mxGeometry relative="1" as="geometry" />
        </mxCell>
        <mxCell id="NsEGqORS4dfYETc8ckf7-83" value="(0,N)" style="edgeLabel;html=1;align=center;verticalAlign=middle;resizable=0;points=[];fontSize=11;fontFamily=Helvetica;fontColor=#FEFAE0;" vertex="1" connectable="0" parent="NsEGqORS4dfYETc8ckf7-31">
          <mxGeometry x="0.3158" y="3" relative="1" as="geometry">
            <mxPoint as="offset" />
          </mxGeometry>
        </mxCell>
        <mxCell id="NsEGqORS4dfYETc8ckf7-33" style="edgeStyle=none;shape=connector;rounded=0;orthogonalLoop=1;jettySize=auto;html=1;labelBackgroundColor=default;strokeColor=#DDA15E;align=center;verticalAlign=middle;fontFamily=Helvetica;fontSize=11;fontColor=#FEFAE0;endArrow=none;endFill=0;fillColor=#BC6C25;" edge="1" parent="1" source="NsEGqORS4dfYETc8ckf7-5" target="NsEGqORS4dfYETc8ckf7-24">
          <mxGeometry relative="1" as="geometry" />
        </mxCell>
        <mxCell id="NsEGqORS4dfYETc8ckf7-86" value="(0,N)" style="edgeLabel;html=1;align=center;verticalAlign=middle;resizable=0;points=[];fontSize=11;fontFamily=Helvetica;fontColor=#FEFAE0;" vertex="1" connectable="0" parent="NsEGqORS4dfYETc8ckf7-33">
          <mxGeometry x="0.3636" y="1" relative="1" as="geometry">
            <mxPoint as="offset" />
          </mxGeometry>
        </mxCell>
        <mxCell id="NsEGqORS4dfYETc8ckf7-47" style="edgeStyle=none;shape=connector;rounded=0;orthogonalLoop=1;jettySize=auto;html=1;labelBackgroundColor=default;strokeColor=#DDA15E;align=center;verticalAlign=middle;fontFamily=Helvetica;fontSize=11;fontColor=#FEFAE0;endArrow=none;endFill=0;fillColor=#BC6C25;" edge="1" parent="1" source="NsEGqORS4dfYETc8ckf7-5" target="NsEGqORS4dfYETc8ckf7-42">
          <mxGeometry relative="1" as="geometry" />
        </mxCell>
        <mxCell id="NsEGqORS4dfYETc8ckf7-48" style="edgeStyle=none;shape=connector;rounded=0;orthogonalLoop=1;jettySize=auto;html=1;labelBackgroundColor=default;strokeColor=#DDA15E;align=center;verticalAlign=middle;fontFamily=Helvetica;fontSize=11;fontColor=#FEFAE0;endArrow=none;endFill=0;fillColor=#BC6C25;" edge="1" parent="1" source="NsEGqORS4dfYETc8ckf7-5" target="NsEGqORS4dfYETc8ckf7-43">
          <mxGeometry relative="1" as="geometry" />
        </mxCell>
        <mxCell id="NsEGqORS4dfYETc8ckf7-49" style="edgeStyle=none;shape=connector;rounded=0;orthogonalLoop=1;jettySize=auto;html=1;labelBackgroundColor=default;strokeColor=#DDA15E;align=center;verticalAlign=middle;fontFamily=Helvetica;fontSize=11;fontColor=#FEFAE0;endArrow=none;endFill=0;fillColor=#BC6C25;" edge="1" parent="1" source="NsEGqORS4dfYETc8ckf7-5" target="NsEGqORS4dfYETc8ckf7-46">
          <mxGeometry relative="1" as="geometry" />
        </mxCell>
        <mxCell id="NsEGqORS4dfYETc8ckf7-50" style="edgeStyle=none;shape=connector;rounded=0;orthogonalLoop=1;jettySize=auto;html=1;labelBackgroundColor=default;strokeColor=#DDA15E;align=center;verticalAlign=middle;fontFamily=Helvetica;fontSize=11;fontColor=#FEFAE0;endArrow=none;endFill=0;fillColor=#BC6C25;" edge="1" parent="1" source="NsEGqORS4dfYETc8ckf7-5" target="NsEGqORS4dfYETc8ckf7-45">
          <mxGeometry relative="1" as="geometry" />
        </mxCell>
        <mxCell id="NsEGqORS4dfYETc8ckf7-51" style="edgeStyle=none;shape=connector;rounded=0;orthogonalLoop=1;jettySize=auto;html=1;labelBackgroundColor=default;strokeColor=#DDA15E;align=center;verticalAlign=middle;fontFamily=Helvetica;fontSize=11;fontColor=#FEFAE0;endArrow=none;endFill=0;fillColor=#BC6C25;" edge="1" parent="1" source="NsEGqORS4dfYETc8ckf7-5" target="NsEGqORS4dfYETc8ckf7-44">
          <mxGeometry relative="1" as="geometry" />
        </mxCell>
        <mxCell id="NsEGqORS4dfYETc8ckf7-5" value="PAGO" style="shape=ext;margin=3;double=1;whiteSpace=wrap;html=1;align=center;labelBackgroundColor=none;fillColor=#BC6C25;strokeColor=#DDA15E;fontColor=#FEFAE0;" vertex="1" parent="1">
          <mxGeometry x="434" y="120" width="100" height="40" as="geometry" />
        </mxCell>
        <mxCell id="NsEGqORS4dfYETc8ckf7-29" style="edgeStyle=none;shape=connector;rounded=0;orthogonalLoop=1;jettySize=auto;html=1;labelBackgroundColor=default;strokeColor=#DDA15E;align=center;verticalAlign=middle;fontFamily=Helvetica;fontSize=11;fontColor=#FEFAE0;endArrow=none;endFill=0;fillColor=#BC6C25;" edge="1" parent="1" source="NsEGqORS4dfYETc8ckf7-6" target="NsEGqORS4dfYETc8ckf7-23">
          <mxGeometry relative="1" as="geometry" />
        </mxCell>
        <mxCell id="NsEGqORS4dfYETc8ckf7-84" value="(1,1)" style="edgeLabel;html=1;align=center;verticalAlign=middle;resizable=0;points=[];fontSize=11;fontFamily=Helvetica;fontColor=#FEFAE0;" vertex="1" connectable="0" parent="NsEGqORS4dfYETc8ckf7-29">
          <mxGeometry x="0.0889" y="2" relative="1" as="geometry">
            <mxPoint as="offset" />
          </mxGeometry>
        </mxCell>
        <mxCell id="NsEGqORS4dfYETc8ckf7-74" style="edgeStyle=none;shape=connector;rounded=0;orthogonalLoop=1;jettySize=auto;html=1;labelBackgroundColor=default;strokeColor=#DDA15E;align=center;verticalAlign=middle;fontFamily=Helvetica;fontSize=11;fontColor=#FEFAE0;endArrow=none;endFill=0;fillColor=#BC6C25;" edge="1" parent="1" source="NsEGqORS4dfYETc8ckf7-6" target="NsEGqORS4dfYETc8ckf7-37">
          <mxGeometry relative="1" as="geometry" />
        </mxCell>
        <mxCell id="NsEGqORS4dfYETc8ckf7-75" style="edgeStyle=none;shape=connector;rounded=0;orthogonalLoop=1;jettySize=auto;html=1;labelBackgroundColor=default;strokeColor=#DDA15E;align=center;verticalAlign=middle;fontFamily=Helvetica;fontSize=11;fontColor=#FEFAE0;endArrow=none;endFill=0;fillColor=#BC6C25;" edge="1" parent="1" source="NsEGqORS4dfYETc8ckf7-6" target="NsEGqORS4dfYETc8ckf7-38">
          <mxGeometry relative="1" as="geometry" />
        </mxCell>
        <mxCell id="NsEGqORS4dfYETc8ckf7-76" style="edgeStyle=none;shape=connector;rounded=0;orthogonalLoop=1;jettySize=auto;html=1;labelBackgroundColor=default;strokeColor=#DDA15E;align=center;verticalAlign=middle;fontFamily=Helvetica;fontSize=11;fontColor=#FEFAE0;endArrow=none;endFill=0;fillColor=#BC6C25;" edge="1" parent="1" source="NsEGqORS4dfYETc8ckf7-6" target="NsEGqORS4dfYETc8ckf7-39">
          <mxGeometry relative="1" as="geometry" />
        </mxCell>
        <mxCell id="NsEGqORS4dfYETc8ckf7-77" style="edgeStyle=none;shape=connector;rounded=0;orthogonalLoop=1;jettySize=auto;html=1;labelBackgroundColor=default;strokeColor=#DDA15E;align=center;verticalAlign=middle;fontFamily=Helvetica;fontSize=11;fontColor=#FEFAE0;endArrow=none;endFill=0;fillColor=#BC6C25;" edge="1" parent="1" source="NsEGqORS4dfYETc8ckf7-6" target="NsEGqORS4dfYETc8ckf7-40">
          <mxGeometry relative="1" as="geometry" />
        </mxCell>
        <mxCell id="NsEGqORS4dfYETc8ckf7-78" style="edgeStyle=none;shape=connector;rounded=0;orthogonalLoop=1;jettySize=auto;html=1;labelBackgroundColor=default;strokeColor=#DDA15E;align=center;verticalAlign=middle;fontFamily=Helvetica;fontSize=11;fontColor=#FEFAE0;endArrow=none;endFill=0;fillColor=#BC6C25;" edge="1" parent="1" source="NsEGqORS4dfYETc8ckf7-6" target="NsEGqORS4dfYETc8ckf7-41">
          <mxGeometry relative="1" as="geometry" />
        </mxCell>
        <mxCell id="NsEGqORS4dfYETc8ckf7-6" value="PROYECTO" style="shape=ext;margin=3;double=1;whiteSpace=wrap;html=1;align=center;labelBackgroundColor=none;fillColor=#BC6C25;strokeColor=#DDA15E;fontColor=#FEFAE0;" vertex="1" parent="1">
          <mxGeometry x="40" y="120" width="100" height="40" as="geometry" />
        </mxCell>
        <mxCell id="NsEGqORS4dfYETc8ckf7-7" value="Telefono" style="ellipse;shape=doubleEllipse;margin=3;whiteSpace=wrap;html=1;align=center;labelBackgroundColor=none;fillColor=#BC6C25;strokeColor=#DDA15E;fontColor=#FEFAE0;" vertex="1" parent="1">
          <mxGeometry x="-120" y="440" width="100" height="40" as="geometry" />
        </mxCell>
        <mxCell id="NsEGqORS4dfYETc8ckf7-8" value="Email" style="ellipse;shape=doubleEllipse;margin=3;whiteSpace=wrap;html=1;align=center;labelBackgroundColor=none;fillColor=#BC6C25;strokeColor=#DDA15E;fontColor=#FEFAE0;" vertex="1" parent="1">
          <mxGeometry x="-140" y="500" width="100" height="40" as="geometry" />
        </mxCell>
        <mxCell id="NsEGqORS4dfYETc8ckf7-9" value="Nombre" style="ellipse;whiteSpace=wrap;html=1;align=center;labelBackgroundColor=none;fillColor=#BC6C25;strokeColor=#DDA15E;fontColor=#FEFAE0;" vertex="1" parent="1">
          <mxGeometry x="-90" y="560" width="100" height="40" as="geometry" />
        </mxCell>
        <mxCell id="NsEGqORS4dfYETc8ckf7-10" value="CIF" style="ellipse;whiteSpace=wrap;html=1;align=center;fontStyle=4;labelBackgroundColor=none;fillColor=#BC6C25;strokeColor=#DDA15E;fontColor=#FEFAE0;" vertex="1" parent="1">
          <mxGeometry x="150" y="565" width="100" height="40" as="geometry" />
        </mxCell>
        <mxCell id="NsEGqORS4dfYETc8ckf7-15" style="rounded=0;orthogonalLoop=1;jettySize=auto;html=1;strokeColor=#DDA15E;fontColor=#FEFAE0;fillColor=#BC6C25;endArrow=none;endFill=0;" edge="1" parent="1" source="NsEGqORS4dfYETc8ckf7-11" target="NsEGqORS4dfYETc8ckf7-14">
          <mxGeometry relative="1" as="geometry" />
        </mxCell>
        <mxCell id="NsEGqORS4dfYETc8ckf7-16" style="edgeStyle=none;shape=connector;rounded=0;orthogonalLoop=1;jettySize=auto;html=1;labelBackgroundColor=default;strokeColor=#DDA15E;align=center;verticalAlign=middle;fontFamily=Helvetica;fontSize=11;fontColor=#FEFAE0;endArrow=none;endFill=0;fillColor=#BC6C25;" edge="1" parent="1" source="NsEGqORS4dfYETc8ckf7-11" target="NsEGqORS4dfYETc8ckf7-13">
          <mxGeometry relative="1" as="geometry" />
        </mxCell>
        <mxCell id="NsEGqORS4dfYETc8ckf7-17" style="edgeStyle=none;shape=connector;rounded=0;orthogonalLoop=1;jettySize=auto;html=1;labelBackgroundColor=default;strokeColor=#DDA15E;align=center;verticalAlign=middle;fontFamily=Helvetica;fontSize=11;fontColor=#FEFAE0;endArrow=none;endFill=0;fillColor=#BC6C25;" edge="1" parent="1" source="NsEGqORS4dfYETc8ckf7-11" target="NsEGqORS4dfYETc8ckf7-12">
          <mxGeometry relative="1" as="geometry" />
        </mxCell>
        <mxCell id="NsEGqORS4dfYETc8ckf7-18" style="edgeStyle=none;shape=connector;rounded=0;orthogonalLoop=1;jettySize=auto;html=1;labelBackgroundColor=default;strokeColor=#DDA15E;align=center;verticalAlign=middle;fontFamily=Helvetica;fontSize=11;fontColor=#FEFAE0;endArrow=none;endFill=0;fillColor=#BC6C25;" edge="1" parent="1" source="NsEGqORS4dfYETc8ckf7-1" target="NsEGqORS4dfYETc8ckf7-9">
          <mxGeometry relative="1" as="geometry" />
        </mxCell>
        <mxCell id="NsEGqORS4dfYETc8ckf7-19" style="edgeStyle=none;shape=connector;rounded=0;orthogonalLoop=1;jettySize=auto;html=1;labelBackgroundColor=default;strokeColor=#DDA15E;align=center;verticalAlign=middle;fontFamily=Helvetica;fontSize=11;fontColor=#FEFAE0;endArrow=none;endFill=0;fillColor=#BC6C25;" edge="1" parent="1" source="NsEGqORS4dfYETc8ckf7-11" target="NsEGqORS4dfYETc8ckf7-1">
          <mxGeometry relative="1" as="geometry" />
        </mxCell>
        <mxCell id="NsEGqORS4dfYETc8ckf7-11" value="Direccion" style="ellipse;whiteSpace=wrap;html=1;align=center;labelBackgroundColor=none;fillColor=#BC6C25;strokeColor=#DDA15E;fontColor=#FEFAE0;" vertex="1" parent="1">
          <mxGeometry x="40" y="580" width="100" height="40" as="geometry" />
        </mxCell>
        <mxCell id="NsEGqORS4dfYETc8ckf7-12" value="Calle" style="ellipse;whiteSpace=wrap;html=1;align=center;labelBackgroundColor=none;fillColor=#BC6C25;strokeColor=#DDA15E;fontColor=#FEFAE0;" vertex="1" parent="1">
          <mxGeometry x="-90" y="680" width="100" height="40" as="geometry" />
        </mxCell>
        <mxCell id="NsEGqORS4dfYETc8ckf7-13" value="Numero" style="ellipse;whiteSpace=wrap;html=1;align=center;labelBackgroundColor=none;fillColor=#BC6C25;strokeColor=#DDA15E;fontColor=#FEFAE0;" vertex="1" parent="1">
          <mxGeometry x="30" y="710" width="100" height="40" as="geometry" />
        </mxCell>
        <mxCell id="NsEGqORS4dfYETc8ckf7-14" value="Localidad" style="ellipse;whiteSpace=wrap;html=1;align=center;labelBackgroundColor=none;fillColor=#BC6C25;strokeColor=#DDA15E;fontColor=#FEFAE0;" vertex="1" parent="1">
          <mxGeometry x="150" y="690" width="100" height="40" as="geometry" />
        </mxCell>
        <mxCell id="NsEGqORS4dfYETc8ckf7-28" style="edgeStyle=none;shape=connector;rounded=0;orthogonalLoop=1;jettySize=auto;html=1;labelBackgroundColor=default;strokeColor=#DDA15E;align=center;verticalAlign=middle;fontFamily=Helvetica;fontSize=11;fontColor=#FEFAE0;endArrow=none;endFill=0;fillColor=#BC6C25;" edge="1" parent="1" source="NsEGqORS4dfYETc8ckf7-22" target="NsEGqORS4dfYETc8ckf7-6">
          <mxGeometry relative="1" as="geometry" />
        </mxCell>
        <mxCell id="NsEGqORS4dfYETc8ckf7-22" value="Realiza" style="shape=rhombus;perimeter=rhombusPerimeter;whiteSpace=wrap;html=1;align=center;strokeColor=#DDA15E;fontFamily=Helvetica;fontSize=11;fontColor=#FEFAE0;fillColor=#BC6C25;" vertex="1" parent="1">
          <mxGeometry x="30" y="270" width="120" height="60" as="geometry" />
        </mxCell>
        <mxCell id="NsEGqORS4dfYETc8ckf7-30" style="edgeStyle=none;shape=connector;rounded=0;orthogonalLoop=1;jettySize=auto;html=1;labelBackgroundColor=default;strokeColor=#DDA15E;align=center;verticalAlign=middle;fontFamily=Helvetica;fontSize=11;fontColor=#FEFAE0;endArrow=none;endFill=0;fillColor=#BC6C25;" edge="1" parent="1" source="NsEGqORS4dfYETc8ckf7-23" target="NsEGqORS4dfYETc8ckf7-5">
          <mxGeometry relative="1" as="geometry" />
        </mxCell>
        <mxCell id="NsEGqORS4dfYETc8ckf7-85" value="(0,N)" style="edgeLabel;html=1;align=center;verticalAlign=middle;resizable=0;points=[];fontSize=11;fontFamily=Helvetica;fontColor=#FEFAE0;" vertex="1" connectable="0" parent="NsEGqORS4dfYETc8ckf7-30">
          <mxGeometry x="-0.0714" y="3" relative="1" as="geometry">
            <mxPoint as="offset" />
          </mxGeometry>
        </mxCell>
        <mxCell id="NsEGqORS4dfYETc8ckf7-23" value="Tiene" style="shape=rhombus;double=1;perimeter=rhombusPerimeter;whiteSpace=wrap;html=1;align=center;strokeColor=#DDA15E;fontFamily=Helvetica;fontSize=11;fontColor=#FEFAE0;fillColor=#BC6C25;" vertex="1" parent="1">
          <mxGeometry x="230" y="110" width="120" height="60" as="geometry" />
        </mxCell>
        <mxCell id="NsEGqORS4dfYETc8ckf7-34" style="edgeStyle=none;shape=connector;rounded=0;orthogonalLoop=1;jettySize=auto;html=1;labelBackgroundColor=default;strokeColor=#DDA15E;align=center;verticalAlign=middle;fontFamily=Helvetica;fontSize=11;fontColor=#FEFAE0;endArrow=none;endFill=0;fillColor=#BC6C25;" edge="1" parent="1" source="NsEGqORS4dfYETc8ckf7-24" target="NsEGqORS4dfYETc8ckf7-4">
          <mxGeometry relative="1" as="geometry" />
        </mxCell>
        <mxCell id="NsEGqORS4dfYETc8ckf7-81" value="(1,1)" style="edgeLabel;html=1;align=center;verticalAlign=middle;resizable=0;points=[];fontSize=11;fontFamily=Helvetica;fontColor=#FEFAE0;" vertex="1" connectable="0" parent="NsEGqORS4dfYETc8ckf7-34">
          <mxGeometry x="0.0933" y="2" relative="1" as="geometry">
            <mxPoint as="offset" />
          </mxGeometry>
        </mxCell>
        <mxCell id="NsEGqORS4dfYETc8ckf7-24" value="Es para" style="shape=rhombus;perimeter=rhombusPerimeter;whiteSpace=wrap;html=1;align=center;strokeColor=#DDA15E;fontFamily=Helvetica;fontSize=11;fontColor=#FEFAE0;fillColor=#BC6C25;" vertex="1" parent="1">
          <mxGeometry x="424" y="270" width="120" height="60" as="geometry" />
        </mxCell>
        <mxCell id="NsEGqORS4dfYETc8ckf7-25" value="Pertenece" style="shape=rhombus;perimeter=rhombusPerimeter;whiteSpace=wrap;html=1;align=center;strokeColor=#DDA15E;fontFamily=Helvetica;fontSize=11;fontColor=#FEFAE0;fillColor=#BC6C25;" vertex="1" parent="1">
          <mxGeometry x="724" y="110" width="120" height="60" as="geometry" />
        </mxCell>
        <mxCell id="NsEGqORS4dfYETc8ckf7-36" style="edgeStyle=none;shape=connector;rounded=0;orthogonalLoop=1;jettySize=auto;html=1;labelBackgroundColor=default;strokeColor=#DDA15E;align=center;verticalAlign=middle;fontFamily=Helvetica;fontSize=11;fontColor=#FEFAE0;endArrow=none;endFill=0;fillColor=#BC6C25;" edge="1" parent="1" source="NsEGqORS4dfYETc8ckf7-26" target="NsEGqORS4dfYETc8ckf7-2">
          <mxGeometry relative="1" as="geometry" />
        </mxCell>
        <mxCell id="NsEGqORS4dfYETc8ckf7-80" value="(1,1)" style="edgeLabel;html=1;align=center;verticalAlign=middle;resizable=0;points=[];fontSize=11;fontFamily=Helvetica;fontColor=#FEFAE0;" vertex="1" connectable="0" parent="NsEGqORS4dfYETc8ckf7-36">
          <mxGeometry x="-0.22" y="2" relative="1" as="geometry">
            <mxPoint as="offset" />
          </mxGeometry>
        </mxCell>
        <mxCell id="NsEGqORS4dfYETc8ckf7-26" value="Es_de" style="shape=rhombus;perimeter=rhombusPerimeter;whiteSpace=wrap;html=1;align=center;strokeColor=#DDA15E;fontFamily=Helvetica;fontSize=11;fontColor=#FEFAE0;fillColor=#BC6C25;" vertex="1" parent="1">
          <mxGeometry x="424" y="600" width="120" height="60" as="geometry" />
        </mxCell>
        <mxCell id="NsEGqORS4dfYETc8ckf7-32" style="edgeStyle=none;shape=connector;rounded=0;orthogonalLoop=1;jettySize=auto;html=1;labelBackgroundColor=default;strokeColor=#DDA15E;align=center;verticalAlign=middle;fontFamily=Helvetica;fontSize=11;fontColor=#FEFAE0;endArrow=none;endFill=0;fillColor=#BC6C25;" edge="1" parent="1" source="NsEGqORS4dfYETc8ckf7-25" target="NsEGqORS4dfYETc8ckf7-3">
          <mxGeometry relative="1" as="geometry" />
        </mxCell>
        <mxCell id="NsEGqORS4dfYETc8ckf7-82" value="(1,1)" style="edgeLabel;html=1;align=center;verticalAlign=middle;resizable=0;points=[];fontSize=11;fontFamily=Helvetica;fontColor=#FEFAE0;" vertex="1" connectable="0" parent="NsEGqORS4dfYETc8ckf7-32">
          <mxGeometry x="-0.2737" relative="1" as="geometry">
            <mxPoint as="offset" />
          </mxGeometry>
        </mxCell>
        <mxCell id="NsEGqORS4dfYETc8ckf7-37" value="ID_Proyecto" style="ellipse;whiteSpace=wrap;html=1;align=center;fontStyle=4;strokeColor=#DDA15E;fontFamily=Helvetica;fontSize=11;fontColor=#FEFAE0;fillColor=#BC6C25;" vertex="1" parent="1">
          <mxGeometry x="-100" y="190" width="100" height="40" as="geometry" />
        </mxCell>
        <mxCell id="NsEGqORS4dfYETc8ckf7-38" value="Fecha_Ini" style="ellipse;whiteSpace=wrap;html=1;align=center;strokeColor=#DDA15E;fontFamily=Helvetica;fontSize=11;fontColor=#FEFAE0;fillColor=#BC6C25;" vertex="1" parent="1">
          <mxGeometry x="-140" y="130" width="100" height="40" as="geometry" />
        </mxCell>
        <mxCell id="NsEGqORS4dfYETc8ckf7-39" value="Fecha_Fin" style="ellipse;whiteSpace=wrap;html=1;align=center;strokeColor=#DDA15E;fontFamily=Helvetica;fontSize=11;fontColor=#FEFAE0;fillColor=#BC6C25;" vertex="1" parent="1">
          <mxGeometry x="-140" y="60" width="100" height="40" as="geometry" />
        </mxCell>
        <mxCell id="NsEGqORS4dfYETc8ckf7-40" value="Nombre" style="ellipse;whiteSpace=wrap;html=1;align=center;strokeColor=#DDA15E;fontFamily=Helvetica;fontSize=11;fontColor=#FEFAE0;fillColor=#BC6C25;" vertex="1" parent="1">
          <mxGeometry x="-30" y="10" width="100" height="40" as="geometry" />
        </mxCell>
        <mxCell id="NsEGqORS4dfYETc8ckf7-41" value="Cuantia_Dinero" style="ellipse;whiteSpace=wrap;html=1;align=center;strokeColor=#DDA15E;fontFamily=Helvetica;fontSize=11;fontColor=#FEFAE0;fillColor=#BC6C25;" vertex="1" parent="1">
          <mxGeometry x="100" width="100" height="40" as="geometry" />
        </mxCell>
        <mxCell id="NsEGqORS4dfYETc8ckf7-42" value="ID_Pago" style="ellipse;whiteSpace=wrap;html=1;align=center;fontStyle=4;strokeColor=#DDA15E;fontFamily=Helvetica;fontSize=11;fontColor=#FEFAE0;fillColor=#BC6C25;" vertex="1" parent="1">
          <mxGeometry x="334" y="60" width="100" height="40" as="geometry" />
        </mxCell>
        <mxCell id="NsEGqORS4dfYETc8ckf7-43" value="Cantidad" style="ellipse;whiteSpace=wrap;html=1;align=center;strokeColor=#DDA15E;fontFamily=Helvetica;fontSize=11;fontColor=#FEFAE0;fillColor=#BC6C25;" vertex="1" parent="1">
          <mxGeometry x="380" y="10" width="100" height="40" as="geometry" />
        </mxCell>
        <mxCell id="NsEGqORS4dfYETc8ckf7-44" value="Concepto" style="ellipse;whiteSpace=wrap;html=1;align=center;strokeColor=#DDA15E;fontFamily=Helvetica;fontSize=11;fontColor=#FEFAE0;fillColor=#BC6C25;" vertex="1" parent="1">
          <mxGeometry x="560" y="70" width="100" height="40" as="geometry" />
        </mxCell>
        <mxCell id="NsEGqORS4dfYETc8ckf7-45" value="IVA" style="ellipse;whiteSpace=wrap;html=1;align=center;fontStyle=4;strokeColor=#DDA15E;fontFamily=Helvetica;fontSize=11;fontColor=#FEFAE0;fillColor=#BC6C25;" vertex="1" parent="1">
          <mxGeometry x="534" y="30" width="100" height="40" as="geometry" />
        </mxCell>
        <mxCell id="NsEGqORS4dfYETc8ckf7-46" value="Fecha_Pago" style="ellipse;whiteSpace=wrap;html=1;align=center;strokeColor=#DDA15E;fontFamily=Helvetica;fontSize=11;fontColor=#FEFAE0;fillColor=#BC6C25;" vertex="1" parent="1">
          <mxGeometry x="470" y="-10" width="100" height="40" as="geometry" />
        </mxCell>
        <mxCell id="NsEGqORS4dfYETc8ckf7-52" value="Nombre" style="ellipse;whiteSpace=wrap;html=1;align=center;fontStyle=4;strokeColor=#DDA15E;fontFamily=Helvetica;fontSize=11;fontColor=#FEFAE0;fillColor=#BC6C25;" vertex="1" parent="1">
          <mxGeometry x="690" y="440" width="100" height="40" as="geometry" />
        </mxCell>
        <mxCell id="NsEGqORS4dfYETc8ckf7-53" value="Descripcion" style="ellipse;whiteSpace=wrap;html=1;align=center;strokeColor=#DDA15E;fontFamily=Helvetica;fontSize=11;fontColor=#FEFAE0;fillColor=#BC6C25;" vertex="1" parent="1">
          <mxGeometry x="844" y="440" width="100" height="40" as="geometry" />
        </mxCell>
        <mxCell id="NsEGqORS4dfYETc8ckf7-56" value="Nombre" style="ellipse;whiteSpace=wrap;html=1;align=center;strokeColor=#DDA15E;fontFamily=Helvetica;fontSize=11;fontColor=#FEFAE0;fillColor=#BC6C25;" vertex="1" parent="1">
          <mxGeometry x="334" y="400" width="100" height="40" as="geometry" />
        </mxCell>
        <mxCell id="NsEGqORS4dfYETc8ckf7-57" value="Domicilio" style="ellipse;whiteSpace=wrap;html=1;align=center;strokeColor=#DDA15E;fontFamily=Helvetica;fontSize=11;fontColor=#FEFAE0;fillColor=#BC6C25;" vertex="1" parent="1">
          <mxGeometry x="270" y="470" width="100" height="40" as="geometry" />
        </mxCell>
        <mxCell id="NsEGqORS4dfYETc8ckf7-58" value="N_Cuenta" style="ellipse;whiteSpace=wrap;html=1;align=center;strokeColor=#DDA15E;fontFamily=Helvetica;fontSize=11;fontColor=#FEFAE0;fillColor=#BC6C25;" vertex="1" parent="1">
          <mxGeometry x="324" y="530" width="100" height="40" as="geometry" />
        </mxCell>
        <mxCell id="NsEGqORS4dfYETc8ckf7-59" value="Banco" style="ellipse;whiteSpace=wrap;html=1;align=center;strokeColor=#DDA15E;fontFamily=Helvetica;fontSize=11;fontColor=#FEFAE0;fillColor=#BC6C25;" vertex="1" parent="1">
          <mxGeometry x="544" y="400" width="100" height="40" as="geometry" />
        </mxCell>
        <mxCell id="NsEGqORS4dfYETc8ckf7-60" value="Telefono" style="ellipse;whiteSpace=wrap;html=1;align=center;strokeColor=#DDA15E;fontFamily=Helvetica;fontSize=11;fontColor=#FEFAE0;fillColor=#BC6C25;" vertex="1" parent="1">
          <mxGeometry x="590" y="480" width="100" height="40" as="geometry" />
        </mxCell>
        <mxCell id="NsEGqORS4dfYETc8ckf7-61" value="NIF" style="ellipse;whiteSpace=wrap;html=1;align=center;fontStyle=4;strokeColor=#DDA15E;fontFamily=Helvetica;fontSize=11;fontColor=#FEFAE0;fillColor=#BC6C25;" vertex="1" parent="1">
          <mxGeometry x="560" y="540" width="100" height="40" as="geometry" />
        </mxCell>
        <mxCell id="NsEGqORS4dfYETc8ckf7-62" value="ID" style="ellipse;whiteSpace=wrap;html=1;align=center;fontStyle=4;strokeColor=#DDA15E;fontFamily=Helvetica;fontSize=11;fontColor=#FEFAE0;fillColor=#BC6C25;" vertex="1" parent="1">
          <mxGeometry x="334" y="850" width="100" height="40" as="geometry" />
        </mxCell>
        <mxCell id="NsEGqORS4dfYETc8ckf7-63" value="Nombre" style="ellipse;whiteSpace=wrap;html=1;align=center;strokeColor=#DDA15E;fontFamily=Helvetica;fontSize=11;fontColor=#FEFAE0;fillColor=#BC6C25;" vertex="1" parent="1">
          <mxGeometry x="444" y="880" width="100" height="40" as="geometry" />
        </mxCell>
        <mxCell id="NsEGqORS4dfYETc8ckf7-64" value="Descripcion" style="ellipse;whiteSpace=wrap;html=1;align=center;strokeColor=#DDA15E;fontFamily=Helvetica;fontSize=11;fontColor=#FEFAE0;fillColor=#BC6C25;" vertex="1" parent="1">
          <mxGeometry x="544" y="840" width="100" height="40" as="geometry" />
        </mxCell>
        <mxCell id="NsEGqORS4dfYETc8ckf7-88" value="&lt;font style=&quot;font-size: 14px;&quot;&gt;&lt;b&gt;N:1&lt;/b&gt;&lt;/font&gt;" style="text;strokeColor=none;fillColor=none;spacingLeft=4;spacingRight=4;overflow=hidden;rotatable=0;points=[[0,0.5],[1,0.5]];portConstraint=eastwest;fontSize=11;whiteSpace=wrap;html=1;fontFamily=Helvetica;fontColor=#FEFAE0;" vertex="1" parent="1">
          <mxGeometry x="160" y="285" width="40" height="30" as="geometry" />
        </mxCell>
        <mxCell id="NsEGqORS4dfYETc8ckf7-89" value="&lt;font style=&quot;font-size: 14px;&quot;&gt;&lt;b&gt;N:1&lt;/b&gt;&lt;/font&gt;" style="text;strokeColor=none;fillColor=none;spacingLeft=4;spacingRight=4;overflow=hidden;rotatable=0;points=[[0,0.5],[1,0.5]];portConstraint=eastwest;fontSize=11;whiteSpace=wrap;html=1;fontFamily=Helvetica;fontColor=#FEFAE0;" vertex="1" parent="1">
          <mxGeometry x="770" y="80" width="40" height="30" as="geometry" />
        </mxCell>
        <mxCell id="NsEGqORS4dfYETc8ckf7-90" value="&lt;font style=&quot;font-size: 14px;&quot;&gt;&lt;b&gt;N:1&lt;/b&gt;&lt;/font&gt;" style="text;strokeColor=none;fillColor=none;spacingLeft=4;spacingRight=4;overflow=hidden;rotatable=0;points=[[0,0.5],[1,0.5]];portConstraint=eastwest;fontSize=11;whiteSpace=wrap;html=1;fontFamily=Helvetica;fontColor=#FEFAE0;" vertex="1" parent="1">
          <mxGeometry x="544" y="285" width="40" height="30" as="geometry" />
        </mxCell>
        <mxCell id="NsEGqORS4dfYETc8ckf7-91" value="&lt;font style=&quot;font-size: 14px;&quot;&gt;&lt;b&gt;N:1&lt;/b&gt;&lt;/font&gt;" style="text;strokeColor=none;fillColor=none;spacingLeft=4;spacingRight=4;overflow=hidden;rotatable=0;points=[[0,0.5],[1,0.5]];portConstraint=eastwest;fontSize=11;whiteSpace=wrap;html=1;fontFamily=Helvetica;fontColor=#FEFAE0;" vertex="1" parent="1">
          <mxGeometry x="540" y="615" width="40" height="30" as="geometry" />
        </mxCell>
        <mxCell id="NsEGqORS4dfYETc8ckf7-92" value="&lt;font style=&quot;font-size: 14px;&quot;&gt;&lt;b&gt;1:N&lt;/b&gt;&lt;/font&gt;" style="text;strokeColor=none;fillColor=none;spacingLeft=4;spacingRight=4;overflow=hidden;rotatable=0;points=[[0,0.5],[1,0.5]];portConstraint=eastwest;fontSize=11;whiteSpace=wrap;html=1;fontFamily=Helvetica;fontColor=#FEFAE0;" vertex="1" parent="1">
          <mxGeometry x="270" y="80" width="40" height="30" as="geometry" />
        </mxCell>
      </root>
    </mxGraphModel>
  </diagram>
</mxfile>
